<?xml version="1.0" encoding="iso-8859-1"?>
<!-- Generator: Adobe Illustrator 19.0.0, SVG Export Plug-In . SVG Version: 6.00 Build 0)  -->
<svg version="1.1" id="Layer_1" xmlns="http://www.w3.org/2000/svg" xmlns:xlink="http://www.w3.org/1999/xlink" x="0px" y="0px"
	 viewBox="0 0 512 512" style="enable-background:new 0 0 512 512;" xml:space="preserve">
<circle style="fill:#366796;" cx="256" cy="256" r="256"/>
<path style="fill:#273B7A;" d="M170.782,369.778l136.983,136.983c100.414-20.62,179.365-100.038,199.325-200.692L355.557,154.536
	L170.782,369.778z"/>
<circle style="fill:#BABABA;" cx="256.017" cy="256" r="142.153"/>
<path style="fill:#919191;" d="M256.01,113.847c-0.388,0-0.771,0.026-1.158,0.029v284.248c0.388,0.003,0.771,0.029,1.158,0.029
	c78.508,0,142.153-63.643,142.153-142.153S334.519,113.847,256.01,113.847z"/>
<g>
	<path style="fill:#D8D8D8;" d="M122.475,207.145l131.191,46.513l-98.173-98.175C141.017,169.958,129.65,187.54,122.475,207.145z"/>
	<path style="fill:#D8D8D8;" d="M253.666,253.657l102.86,102.86c15.134-15.134,26.865-33.666,33.964-54.35L253.666,253.657z"/>
	<path style="fill:#D8D8D8;" d="M252.835,256.334h145.467c0-21.402-4.81-42.801-14.415-62.447L252.835,256.334z"/>
</g>
<circle style="fill:#A3A3A3;" cx="256.017" cy="256" r="49.905"/>
<path style="fill:#6B6B6B;" d="M256.01,206.095c-0.388,0-0.772,0.021-1.158,0.029v99.75c0.386,0.009,0.771,0.029,1.158,0.029
	c27.562,0,49.905-22.344,49.905-49.905C305.914,228.438,283.57,206.095,256.01,206.095z"/>
<circle style="fill:#FFFFFF;" cx="256.017" cy="256" r="24.952"/>
<path style="fill:#D8D8D8;" d="M256.01,231.048c-0.391,0-0.772,0.041-1.158,0.059v49.788c0.386,0.017,0.767,0.059,1.158,0.059
	c13.781,0,24.952-11.171,24.952-24.952S269.789,231.048,256.01,231.048z"/>
<g>
</g>
<g>
</g>
<g>
</g>
<g>
</g>
<g>
</g>
<g>
</g>
<g>
</g>
<g>
</g>
<g>
</g>
<g>
</g>
<g>
</g>
<g>
</g>
<g>
</g>
<g>
</g>
<g>
</g>
</svg>
